<svg width="512" height="512" viewBox="0 0 512 512" fill="none" xmlns="http://www.w3.org/2000/svg">
<g filter="url(#filter0_d_15_2)">
<rect x="48" y="48" width="416" height="416" rx="88" fill="#424242"/>
<rect x="48" y="48" width="416" height="416" rx="88" fill="url(#paint0_linear_15_2)" fill-opacity="0.6" style="mix-blend-mode:soft-light"/>
<rect x="48" y="48" width="416" height="416" rx="88" fill="url(#paint1_radial_15_2)" style="mix-blend-mode:soft-light"/>
</g>
<mask id="mask0_15_2" style="mask-type:alpha" maskUnits="userSpaceOnUse" x="48" y="48" width="416" height="416">
<rect x="48" y="48" width="416" height="416" rx="88" fill="#424242"/>
</mask>
<g mask="url(#mask0_15_2)">
<rect x="48" y="48" width="416" height="416" fill="url(#paint2_radial_15_2)"/>
<rect x="48" y="48" width="416" height="416" fill="url(#paint3_radial_15_2)" fill-opacity="0.8"/>
<rect x="48" y="48" width="416" height="416" fill="url(#paint4_radial_15_2)" fill-opacity="0.8"/>
<rect x="48" y="48" width="416" height="416" fill="url(#paint5_radial_15_2)" fill-opacity="0.8"/>
<g filter="url(#filter1_ddi_15_2)">
<path fill-rule="evenodd" clip-rule="evenodd" d="M446.357 251.271L430.157 241.235C430.021 239.661 429.868 238.089 429.699 236.519L443.619 223.527C444.321 222.884 444.845 222.07 445.141 221.165C445.438 220.259 445.496 219.293 445.31 218.359C445.125 217.424 444.702 216.553 444.083 215.83C443.463 215.106 442.668 214.554 441.773 214.227L423.969 207.569C423.525 206.032 423.063 204.5 422.582 202.973L433.679 187.545C434.237 186.775 434.589 185.875 434.7 184.931C434.812 183.987 434.68 183.03 434.317 182.151C433.955 181.272 433.373 180.5 432.628 179.91C431.883 179.319 430.999 178.929 430.061 178.776L411.28 175.724C410.556 174.301 409.796 172.902 409.024 171.502L416.913 154.193C417.316 153.329 417.489 152.375 417.417 151.424C417.344 150.474 417.027 149.558 416.498 148.765C415.968 147.972 415.243 147.329 414.392 146.898C413.541 146.467 412.594 146.262 411.641 146.304L392.595 146.968C391.609 145.738 390.603 144.523 389.579 143.325L393.958 124.761C394.18 123.835 394.162 122.868 393.903 121.952C393.645 121.036 393.156 120.202 392.483 119.529C391.81 118.856 390.976 118.367 390.06 118.108C389.144 117.85 388.177 117.832 387.251 118.054L368.699 122.421C367.493 121.407 366.287 120.406 365.044 119.405L365.708 100.371C365.749 99.4179 365.545 98.4706 365.114 97.62C364.683 96.7694 364.04 96.0442 363.247 95.5144C362.454 94.9846 361.538 94.6681 360.587 94.5954C359.637 94.5227 358.683 94.6963 357.819 95.0993L340.509 102.988C339.111 102.216 337.704 101.46 336.287 100.72L333.236 81.9513C333.084 81.0138 332.695 80.1307 332.105 79.3858C331.516 78.6409 330.746 78.0589 329.869 77.6951C328.992 77.3314 328.036 77.1979 327.092 77.3074C326.149 77.4168 325.249 77.7656 324.478 78.3206L309.038 89.418C307.517 88.9344 305.989 88.472 304.455 88.0308L297.796 70.2267C297.468 69.3336 296.916 68.5397 296.193 67.921C295.469 67.3023 294.6 66.8795 293.666 66.6931C292.733 66.5067 291.768 66.563 290.863 66.8564C289.957 67.1498 289.143 67.6707 288.496 68.3691L275.505 82.3132L275.504 82.3131C273.936 82.1443 272.368 81.9754 270.789 81.8548L260.753 65.643C260.253 64.835 259.556 64.168 258.726 63.7054C257.896 63.2428 256.962 63 256.012 63C255.062 63 254.128 63.2428 253.298 63.7054C252.469 64.168 251.771 64.835 251.272 65.643L241.236 81.8548C239.668 81.9755 238.087 82.1443 236.519 82.3132L223.528 68.3812C222.878 67.692 222.063 67.1792 221.161 66.8908C220.258 66.6024 219.297 66.5478 218.368 66.7323C217.438 66.9167 216.571 67.3341 215.847 67.9453C215.123 68.5565 214.566 69.3415 214.228 70.2267L207.569 88.0308C206.025 88.4771 204.493 88.9475 202.986 89.43L187.546 78.3206C186.778 77.7559 185.877 77.3986 184.931 77.2833C183.984 77.168 183.024 77.2985 182.143 77.6621C181.261 78.0258 180.489 78.6104 179.899 79.3596C179.309 80.1087 178.923 80.9972 178.776 81.9393L175.713 100.72C174.301 101.456 172.902 102.216 171.491 102.988L154.193 95.0993C153.33 94.6968 152.378 94.5233 151.428 94.5955C150.478 94.6676 149.563 94.9831 148.77 95.5114C147.978 96.0397 147.335 96.7632 146.903 97.6121C146.471 98.461 146.265 99.4069 146.304 100.359L146.968 119.417C145.737 120.406 144.519 121.407 143.313 122.433L124.761 118.054C123.836 117.84 122.872 117.864 121.959 118.125C121.046 118.386 120.215 118.874 119.543 119.545C118.871 120.216 118.38 121.047 118.118 121.959C117.855 122.871 117.829 123.835 118.042 124.761L122.421 143.325C121.396 144.531 120.394 145.737 119.405 146.968L100.359 146.304C99.4083 146.269 98.4648 146.478 97.618 146.911C96.7712 147.344 96.0492 147.986 95.5208 148.777C94.9925 149.568 94.6753 150.481 94.5994 151.429C94.5235 152.377 94.6915 153.328 95.0874 154.193L102.976 171.514C102.216 172.902 101.456 174.301 100.721 175.736L81.9514 178.776C81.0119 178.927 80.1266 179.316 79.3801 179.906C78.6335 180.496 78.0504 181.267 77.6864 182.146C77.3223 183.026 77.1895 183.983 77.3006 184.929C77.4116 185.874 77.7628 186.775 78.3206 187.545L89.418 202.973C88.9356 204.493 88.4772 206.025 88.0309 207.557L70.2267 214.227C69.3369 214.56 68.5467 215.114 67.9314 215.838C67.3161 216.562 66.8961 217.431 66.7112 218.363C66.5263 219.295 66.5826 220.258 66.8749 221.162C67.1672 222.066 67.6857 222.88 68.3812 223.527L82.3133 236.519C82.1323 238.087 81.9755 239.655 81.8428 241.235L65.643 251.271C64.835 251.77 64.168 252.468 63.7054 253.298C63.2428 254.127 63 255.062 63 256.011C63 256.961 63.2428 257.896 63.7054 258.725C64.168 259.555 64.835 260.253 65.643 260.752L81.8428 270.776C81.9755 272.356 82.1323 273.936 82.3133 275.504L68.3812 288.495C67.6857 289.143 67.1672 289.957 66.8749 290.861C66.5826 291.765 66.5263 292.728 66.7112 293.66C66.8961 294.592 67.3161 295.461 67.9314 296.185C68.5467 296.908 69.3369 297.463 70.2267 297.796L88.0309 304.454C88.4772 305.998 88.9476 307.53 89.4301 309.038L78.3206 324.477C77.7657 325.248 77.4169 326.148 77.3074 327.092C77.198 328.035 77.3314 328.991 77.6952 329.868C78.0589 330.745 78.6409 331.515 79.3858 332.105C80.1307 332.694 81.0139 333.083 81.9514 333.235L100.721 336.287C101.456 337.71 102.204 339.121 102.988 340.508L95.0874 357.818C94.6915 358.683 94.5235 359.634 94.5994 360.582C94.6753 361.53 94.9925 362.443 95.5208 363.234C96.0492 364.025 96.7712 364.667 97.618 365.1C98.4648 365.533 99.4083 365.742 100.359 365.707L119.405 365.043C120.394 366.286 121.396 367.492 122.421 368.698L118.042 387.262C117.818 388.188 117.836 389.157 118.094 390.074C118.353 390.992 118.843 391.827 119.518 392.499C120.193 393.172 121.03 393.66 121.949 393.915C122.867 394.17 123.835 394.185 124.761 393.957L143.313 389.59C144.519 390.616 145.737 391.605 146.968 392.594L146.304 411.652C146.268 412.603 146.477 413.547 146.909 414.394C147.342 415.241 147.985 415.963 148.777 416.49C149.568 417.018 150.482 417.334 151.43 417.407C152.378 417.481 153.33 417.31 154.193 416.911L171.503 409.023C172.89 409.795 174.301 410.555 175.725 411.29L178.776 430.047C178.922 430.99 179.308 431.879 179.897 432.629C180.486 433.379 181.258 433.965 182.138 434.331C183.019 434.697 183.979 434.83 184.926 434.718C185.873 434.606 186.775 434.252 187.546 433.69L202.974 422.569C204.493 423.051 206.025 423.534 207.557 423.968L214.216 441.772C214.543 442.667 215.095 443.462 215.818 444.081C216.542 444.701 217.413 445.124 218.347 445.309C219.281 445.495 220.248 445.436 221.153 445.14C222.058 444.844 222.872 444.32 223.516 443.618L236.519 429.686C238.087 429.866 239.655 430.023 241.236 430.168L251.272 446.368C251.773 447.173 252.472 447.837 253.301 448.298C254.13 448.758 255.063 449 256.012 449C256.961 449 257.894 448.758 258.723 448.298C259.553 447.837 260.251 447.173 260.753 446.368L270.776 430.156C272.357 430.023 273.937 429.866 275.505 429.686L288.496 443.618C289.14 444.317 289.953 444.838 290.857 445.133C291.761 445.427 292.725 445.485 293.658 445.3C294.59 445.114 295.459 444.693 296.182 444.075C296.904 443.457 297.456 442.664 297.784 441.772L304.455 423.968C305.987 423.534 307.519 423.051 309.038 422.569L324.478 433.69C325.251 434.242 326.151 434.588 327.094 434.695C328.038 434.802 328.993 434.666 329.869 434.302C330.746 433.937 331.515 433.355 332.104 432.611C332.693 431.867 333.082 430.984 333.236 430.047L336.299 411.278C337.455 410.686 338.603 410.061 339.749 409.436L339.752 409.435C340.004 409.297 340.257 409.16 340.509 409.023L357.819 416.911C358.683 417.311 359.636 417.482 360.585 417.407C361.535 417.333 362.449 417.016 363.241 416.487C364.033 415.958 364.675 415.235 365.107 414.386C365.539 413.537 365.746 412.592 365.708 411.64L365.044 392.582C366.275 391.617 367.493 390.616 368.699 389.59L387.251 393.957C388.176 394.182 389.143 394.166 390.059 393.909C390.976 393.653 391.811 393.165 392.484 392.493C393.158 391.82 393.647 390.986 393.905 390.07C394.163 389.154 394.181 388.187 393.958 387.262L389.591 368.698C390.605 367.492 391.606 366.286 392.595 365.043L411.653 365.707C412.605 365.746 413.551 365.54 414.4 365.108C415.249 364.676 415.972 364.033 416.501 363.241C417.029 362.448 417.344 361.533 417.417 360.583C417.489 359.633 417.315 358.681 416.913 357.818L409.024 340.508C409.796 339.121 410.544 337.71 411.28 336.287L430.049 333.235C430.99 333.089 431.877 332.704 432.626 332.115C433.375 331.527 433.96 330.756 434.325 329.877C434.69 328.997 434.822 328.038 434.709 327.092C434.596 326.147 434.241 325.246 433.679 324.477L422.582 309.038C423.062 307.515 423.524 305.987 423.969 304.454L441.773 297.796C442.668 297.468 443.463 296.917 444.083 296.193C444.702 295.469 445.125 294.599 445.31 293.664C445.496 292.73 445.438 291.764 445.141 290.858C444.845 289.953 444.321 289.139 443.619 288.495L429.687 275.504C429.856 273.936 430.012 272.356 430.157 270.776L446.357 260.752C447.165 260.253 447.832 259.555 448.295 258.725C448.757 257.896 449 256.961 449 256.011C449 255.062 448.757 254.127 448.295 253.298C447.832 252.468 447.165 251.77 446.357 251.271ZM337.904 385.694C334.997 384.987 332.481 383.174 330.89 380.641C329.3 378.107 328.761 375.053 329.388 372.128C330.015 369.203 331.759 366.639 334.248 364.98C336.737 363.321 339.776 362.699 342.717 363.246C345.635 363.943 348.164 365.755 349.763 368.293C351.363 370.831 351.905 373.895 351.275 376.828C350.644 379.761 348.891 382.331 346.39 383.988C343.889 385.645 340.839 386.257 337.892 385.694H337.904ZM332.391 348.457C331.05 348.171 329.665 348.151 328.315 348.399C326.966 348.648 325.679 349.16 324.527 349.906C323.376 350.652 322.382 351.617 321.604 352.747C320.826 353.877 320.278 355.149 319.991 356.491L314.237 383.342C295.945 391.638 276.086 395.916 256 395.887C234.77 395.887 214.626 391.182 196.544 382.775L190.791 355.936C190.505 354.593 189.958 353.32 189.181 352.188C188.403 351.057 187.41 350.09 186.258 349.343C185.107 348.596 183.819 348.083 182.469 347.834C181.119 347.585 179.733 347.604 178.39 347.891L154.688 352.981C133.123 327.092 110.764 291.383 115.678 239.607H115.69L140.382 228.63C142.916 227.501 144.898 225.412 145.893 222.822C146.888 220.233 146.815 217.354 145.689 214.818L140.611 203.323L133.123 186.259C158.857 139.798 194.24 124.761 229.825 116.064L247.472 134.579C251.465 138.753 258.087 138.922 262.248 134.917L282.007 116.028C287.302 117.022 292.525 118.316 297.649 119.9L298.134 278.421L213.554 149.312V149.013L168.18 194.846V316.819L213.554 362.123V233.083L298.512 362.415L331.525 329.392L331.412 329.219L343.82 316.813L343.517 144.028C357.706 155.24 369.628 169.088 378.614 184.831L365.092 215.373C363.97 217.909 363.899 220.787 364.893 223.375C365.888 225.964 367.868 228.053 370.4 229.185L396.443 240.74C396.889 245.36 397.118 250.029 397.118 254.769H397.13C397.13 291.071 382.07 327.832 356.649 353.644L332.403 348.445L332.391 348.457ZM172.89 385.127C169.949 385.674 166.911 385.052 164.421 383.393C161.932 381.734 160.188 379.17 159.561 376.245C158.934 373.32 159.473 370.266 161.064 367.732C162.654 365.199 165.17 363.386 168.077 362.679C169.552 362.364 171.074 362.342 172.557 362.615C174.04 362.888 175.455 363.451 176.721 364.271C177.987 365.091 179.079 366.152 179.934 367.394C180.79 368.636 181.392 370.034 181.708 371.509C182.023 372.983 182.044 374.506 181.771 375.989C181.498 377.472 180.936 378.887 180.116 380.153C179.296 381.418 178.235 382.51 176.993 383.366C175.751 384.221 174.353 384.824 172.878 385.139L172.89 385.127ZM129.14 207.726C129.75 209.102 130.084 210.584 130.122 212.089C130.159 213.593 129.9 215.091 129.359 216.495C128.818 217.9 128.006 219.184 126.969 220.275C125.931 221.366 124.689 222.241 123.313 222.852C121.938 223.463 120.455 223.796 118.95 223.834C117.446 223.872 115.948 223.613 114.544 223.072C113.139 222.531 111.855 221.718 110.764 220.681C109.673 219.644 108.798 218.402 108.187 217.026C106.954 214.247 106.875 211.093 107.967 208.256C109.06 205.419 111.235 203.133 114.013 201.9C116.792 200.666 119.946 200.587 122.783 201.68C125.62 202.773 127.906 204.947 129.14 207.726ZM247.484 100.31C248.573 99.2695 249.856 98.4534 251.26 97.9089C252.664 97.3643 254.162 97.1019 255.667 97.1367C257.173 97.1714 258.657 97.5026 260.035 98.1113C261.412 98.72 262.656 99.5943 263.696 100.684C264.737 101.776 265.552 103.061 266.096 104.468C266.64 105.875 266.901 107.374 266.866 108.882C266.83 110.39 266.497 111.876 265.887 113.255C265.277 114.634 264.401 115.879 263.31 116.92C262.221 117.96 260.939 118.775 259.535 119.318C258.132 119.861 256.635 120.123 255.13 120.087C253.625 120.051 252.142 119.719 250.766 119.109C249.39 118.5 248.148 117.625 247.11 116.534C245.013 114.331 243.875 111.386 243.945 108.345C244.015 105.304 245.288 102.415 247.484 100.31ZM381.654 208.281C382.889 205.502 385.177 203.328 388.015 202.237C390.853 201.145 394.008 201.226 396.787 202.461C399.565 203.695 401.739 205.983 402.831 208.821C403.922 211.659 403.841 214.814 402.607 217.593C401.995 218.969 401.119 220.21 400.027 221.247C398.936 222.284 397.651 223.096 396.246 223.637C394.841 224.177 393.343 224.436 391.838 224.397C390.333 224.359 388.85 224.024 387.474 223.413C386.099 222.801 384.857 221.925 383.82 220.834C382.783 219.742 381.971 218.457 381.43 217.052C380.89 215.647 380.631 214.149 380.67 212.644C380.708 211.139 381.043 209.656 381.654 208.281Z" fill="white" fill-opacity="0.76" shape-rendering="crispEdges"/>
<path fill-rule="evenodd" clip-rule="evenodd" d="M446.357 251.271L430.157 241.235C430.021 239.661 429.868 238.089 429.699 236.519L443.619 223.527C444.321 222.884 444.845 222.07 445.141 221.165C445.438 220.259 445.496 219.293 445.31 218.359C445.125 217.424 444.702 216.553 444.083 215.83C443.463 215.106 442.668 214.554 441.773 214.227L423.969 207.569C423.525 206.032 423.063 204.5 422.582 202.973L433.679 187.545C434.237 186.775 434.589 185.875 434.7 184.931C434.812 183.987 434.68 183.03 434.317 182.151C433.955 181.272 433.373 180.5 432.628 179.91C431.883 179.319 430.999 178.929 430.061 178.776L411.28 175.724C410.556 174.301 409.796 172.902 409.024 171.502L416.913 154.193C417.316 153.329 417.489 152.375 417.417 151.424C417.344 150.474 417.027 149.558 416.498 148.765C415.968 147.972 415.243 147.329 414.392 146.898C413.541 146.467 412.594 146.262 411.641 146.304L392.595 146.968C391.609 145.738 390.603 144.523 389.579 143.325L393.958 124.761C394.18 123.835 394.162 122.868 393.903 121.952C393.645 121.036 393.156 120.202 392.483 119.529C391.81 118.856 390.976 118.367 390.06 118.108C389.144 117.85 388.177 117.832 387.251 118.054L368.699 122.421C367.493 121.407 366.287 120.406 365.044 119.405L365.708 100.371C365.749 99.4179 365.545 98.4706 365.114 97.62C364.683 96.7694 364.04 96.0442 363.247 95.5144C362.454 94.9846 361.538 94.6681 360.587 94.5954C359.637 94.5227 358.683 94.6963 357.819 95.0993L340.509 102.988C339.111 102.216 337.704 101.46 336.287 100.72L333.236 81.9513C333.084 81.0138 332.695 80.1307 332.105 79.3858C331.516 78.6409 330.746 78.0589 329.869 77.6951C328.992 77.3314 328.036 77.1979 327.092 77.3074C326.149 77.4168 325.249 77.7656 324.478 78.3206L309.038 89.418C307.517 88.9344 305.989 88.472 304.455 88.0308L297.796 70.2267C297.468 69.3336 296.916 68.5397 296.193 67.921C295.469 67.3023 294.6 66.8795 293.666 66.6931C292.733 66.5067 291.768 66.563 290.863 66.8564C289.957 67.1498 289.143 67.6707 288.496 68.3691L275.505 82.3132L275.504 82.3131C273.936 82.1443 272.368 81.9754 270.789 81.8548L260.753 65.643C260.253 64.835 259.556 64.168 258.726 63.7054C257.896 63.2428 256.962 63 256.012 63C255.062 63 254.128 63.2428 253.298 63.7054C252.469 64.168 251.771 64.835 251.272 65.643L241.236 81.8548C239.668 81.9755 238.087 82.1443 236.519 82.3132L223.528 68.3812C222.878 67.692 222.063 67.1792 221.161 66.8908C220.258 66.6024 219.297 66.5478 218.368 66.7323C217.438 66.9167 216.571 67.3341 215.847 67.9453C215.123 68.5565 214.566 69.3415 214.228 70.2267L207.569 88.0308C206.025 88.4771 204.493 88.9475 202.986 89.43L187.546 78.3206C186.778 77.7559 185.877 77.3986 184.931 77.2833C183.984 77.168 183.024 77.2985 182.143 77.6621C181.261 78.0258 180.489 78.6104 179.899 79.3596C179.309 80.1087 178.923 80.9972 178.776 81.9393L175.713 100.72C174.301 101.456 172.902 102.216 171.491 102.988L154.193 95.0993C153.33 94.6968 152.378 94.5233 151.428 94.5955C150.478 94.6676 149.563 94.9831 148.77 95.5114C147.978 96.0397 147.335 96.7632 146.903 97.6121C146.471 98.461 146.265 99.4069 146.304 100.359L146.968 119.417C145.737 120.406 144.519 121.407 143.313 122.433L124.761 118.054C123.836 117.84 122.872 117.864 121.959 118.125C121.046 118.386 120.215 118.874 119.543 119.545C118.871 120.216 118.38 121.047 118.118 121.959C117.855 122.871 117.829 123.835 118.042 124.761L122.421 143.325C121.396 144.531 120.394 145.737 119.405 146.968L100.359 146.304C99.4083 146.269 98.4648 146.478 97.618 146.911C96.7712 147.344 96.0492 147.986 95.5208 148.777C94.9925 149.568 94.6753 150.481 94.5994 151.429C94.5235 152.377 94.6915 153.328 95.0874 154.193L102.976 171.514C102.216 172.902 101.456 174.301 100.721 175.736L81.9514 178.776C81.0119 178.927 80.1266 179.316 79.3801 179.906C78.6335 180.496 78.0504 181.267 77.6864 182.146C77.3223 183.026 77.1895 183.983 77.3006 184.929C77.4116 185.874 77.7628 186.775 78.3206 187.545L89.418 202.973C88.9356 204.493 88.4772 206.025 88.0309 207.557L70.2267 214.227C69.3369 214.56 68.5467 215.114 67.9314 215.838C67.3161 216.562 66.8961 217.431 66.7112 218.363C66.5263 219.295 66.5826 220.258 66.8749 221.162C67.1672 222.066 67.6857 222.88 68.3812 223.527L82.3133 236.519C82.1323 238.087 81.9755 239.655 81.8428 241.235L65.643 251.271C64.835 251.77 64.168 252.468 63.7054 253.298C63.2428 254.127 63 255.062 63 256.011C63 256.961 63.2428 257.896 63.7054 258.725C64.168 259.555 64.835 260.253 65.643 260.752L81.8428 270.776C81.9755 272.356 82.1323 273.936 82.3133 275.504L68.3812 288.495C67.6857 289.143 67.1672 289.957 66.8749 290.861C66.5826 291.765 66.5263 292.728 66.7112 293.66C66.8961 294.592 67.3161 295.461 67.9314 296.185C68.5467 296.908 69.3369 297.463 70.2267 297.796L88.0309 304.454C88.4772 305.998 88.9476 307.53 89.4301 309.038L78.3206 324.477C77.7657 325.248 77.4169 326.148 77.3074 327.092C77.198 328.035 77.3314 328.991 77.6952 329.868C78.0589 330.745 78.6409 331.515 79.3858 332.105C80.1307 332.694 81.0139 333.083 81.9514 333.235L100.721 336.287C101.456 337.71 102.204 339.121 102.988 340.508L95.0874 357.818C94.6915 358.683 94.5235 359.634 94.5994 360.582C94.6753 361.53 94.9925 362.443 95.5208 363.234C96.0492 364.025 96.7712 364.667 97.618 365.1C98.4648 365.533 99.4083 365.742 100.359 365.707L119.405 365.043C120.394 366.286 121.396 367.492 122.421 368.698L118.042 387.262C117.818 388.188 117.836 389.157 118.094 390.074C118.353 390.992 118.843 391.827 119.518 392.499C120.193 393.172 121.03 393.66 121.949 393.915C122.867 394.17 123.835 394.185 124.761 393.957L143.313 389.59C144.519 390.616 145.737 391.605 146.968 392.594L146.304 411.652C146.268 412.603 146.477 413.547 146.909 414.394C147.342 415.241 147.985 415.963 148.777 416.49C149.568 417.018 150.482 417.334 151.43 417.407C152.378 417.481 153.33 417.31 154.193 416.911L171.503 409.023C172.89 409.795 174.301 410.555 175.725 411.29L178.776 430.047C178.922 430.99 179.308 431.879 179.897 432.629C180.486 433.379 181.258 433.965 182.138 434.331C183.019 434.697 183.979 434.83 184.926 434.718C185.873 434.606 186.775 434.252 187.546 433.69L202.974 422.569C204.493 423.051 206.025 423.534 207.557 423.968L214.216 441.772C214.543 442.667 215.095 443.462 215.818 444.081C216.542 444.701 217.413 445.124 218.347 445.309C219.281 445.495 220.248 445.436 221.153 445.14C222.058 444.844 222.872 444.32 223.516 443.618L236.519 429.686C238.087 429.866 239.655 430.023 241.236 430.168L251.272 446.368C251.773 447.173 252.472 447.837 253.301 448.298C254.13 448.758 255.063 449 256.012 449C256.961 449 257.894 448.758 258.723 448.298C259.553 447.837 260.251 447.173 260.753 446.368L270.776 430.156C272.357 430.023 273.937 429.866 275.505 429.686L288.496 443.618C289.14 444.317 289.953 444.838 290.857 445.133C291.761 445.427 292.725 445.485 293.658 445.3C294.59 445.114 295.459 444.693 296.182 444.075C296.904 443.457 297.456 442.664 297.784 441.772L304.455 423.968C305.987 423.534 307.519 423.051 309.038 422.569L324.478 433.69C325.251 434.242 326.151 434.588 327.094 434.695C328.038 434.802 328.993 434.666 329.869 434.302C330.746 433.937 331.515 433.355 332.104 432.611C332.693 431.867 333.082 430.984 333.236 430.047L336.299 411.278C337.455 410.686 338.603 410.061 339.749 409.436L339.752 409.435C340.004 409.297 340.257 409.16 340.509 409.023L357.819 416.911C358.683 417.311 359.636 417.482 360.585 417.407C361.535 417.333 362.449 417.016 363.241 416.487C364.033 415.958 364.675 415.235 365.107 414.386C365.539 413.537 365.746 412.592 365.708 411.64L365.044 392.582C366.275 391.617 367.493 390.616 368.699 389.59L387.251 393.957C388.176 394.182 389.143 394.166 390.059 393.909C390.976 393.653 391.811 393.165 392.484 392.493C393.158 391.82 393.647 390.986 393.905 390.07C394.163 389.154 394.181 388.187 393.958 387.262L389.591 368.698C390.605 367.492 391.606 366.286 392.595 365.043L411.653 365.707C412.605 365.746 413.551 365.54 414.4 365.108C415.249 364.676 415.972 364.033 416.501 363.241C417.029 362.448 417.344 361.533 417.417 360.583C417.489 359.633 417.315 358.681 416.913 357.818L409.024 340.508C409.796 339.121 410.544 337.71 411.28 336.287L430.049 333.235C430.99 333.089 431.877 332.704 432.626 332.115C433.375 331.527 433.96 330.756 434.325 329.877C434.69 328.997 434.822 328.038 434.709 327.092C434.596 326.147 434.241 325.246 433.679 324.477L422.582 309.038C423.062 307.515 423.524 305.987 423.969 304.454L441.773 297.796C442.668 297.468 443.463 296.917 444.083 296.193C444.702 295.469 445.125 294.599 445.31 293.664C445.496 292.73 445.438 291.764 445.141 290.858C444.845 289.953 444.321 289.139 443.619 288.495L429.687 275.504C429.856 273.936 430.012 272.356 430.157 270.776L446.357 260.752C447.165 260.253 447.832 259.555 448.295 258.725C448.757 257.896 449 256.961 449 256.011C449 255.062 448.757 254.127 448.295 253.298C447.832 252.468 447.165 251.77 446.357 251.271ZM337.904 385.694C334.997 384.987 332.481 383.174 330.89 380.641C329.3 378.107 328.761 375.053 329.388 372.128C330.015 369.203 331.759 366.639 334.248 364.98C336.737 363.321 339.776 362.699 342.717 363.246C345.635 363.943 348.164 365.755 349.763 368.293C351.363 370.831 351.905 373.895 351.275 376.828C350.644 379.761 348.891 382.331 346.39 383.988C343.889 385.645 340.839 386.257 337.892 385.694H337.904ZM332.391 348.457C331.05 348.171 329.665 348.151 328.315 348.399C326.966 348.648 325.679 349.16 324.527 349.906C323.376 350.652 322.382 351.617 321.604 352.747C320.826 353.877 320.278 355.149 319.991 356.491L314.237 383.342C295.945 391.638 276.086 395.916 256 395.887C234.77 395.887 214.626 391.182 196.544 382.775L190.791 355.936C190.505 354.593 189.958 353.32 189.181 352.188C188.403 351.057 187.41 350.09 186.258 349.343C185.107 348.596 183.819 348.083 182.469 347.834C181.119 347.585 179.733 347.604 178.39 347.891L154.688 352.981C133.123 327.092 110.764 291.383 115.678 239.607H115.69L140.382 228.63C142.916 227.501 144.898 225.412 145.893 222.822C146.888 220.233 146.815 217.354 145.689 214.818L140.611 203.323L133.123 186.259C158.857 139.798 194.24 124.761 229.825 116.064L247.472 134.579C251.465 138.753 258.087 138.922 262.248 134.917L282.007 116.028C287.302 117.022 292.525 118.316 297.649 119.9L298.134 278.421L213.554 149.312V149.013L168.18 194.846V316.819L213.554 362.123V233.083L298.512 362.415L331.525 329.392L331.412 329.219L343.82 316.813L343.517 144.028C357.706 155.24 369.628 169.088 378.614 184.831L365.092 215.373C363.97 217.909 363.899 220.787 364.893 223.375C365.888 225.964 367.868 228.053 370.4 229.185L396.443 240.74C396.889 245.36 397.118 250.029 397.118 254.769H397.13C397.13 291.071 382.07 327.832 356.649 353.644L332.403 348.445L332.391 348.457ZM172.89 385.127C169.949 385.674 166.911 385.052 164.421 383.393C161.932 381.734 160.188 379.17 159.561 376.245C158.934 373.32 159.473 370.266 161.064 367.732C162.654 365.199 165.17 363.386 168.077 362.679C169.552 362.364 171.074 362.342 172.557 362.615C174.04 362.888 175.455 363.451 176.721 364.271C177.987 365.091 179.079 366.152 179.934 367.394C180.79 368.636 181.392 370.034 181.708 371.509C182.023 372.983 182.044 374.506 181.771 375.989C181.498 377.472 180.936 378.887 180.116 380.153C179.296 381.418 178.235 382.51 176.993 383.366C175.751 384.221 174.353 384.824 172.878 385.139L172.89 385.127ZM129.14 207.726C129.75 209.102 130.084 210.584 130.122 212.089C130.159 213.593 129.9 215.091 129.359 216.495C128.818 217.9 128.006 219.184 126.969 220.275C125.931 221.366 124.689 222.241 123.313 222.852C121.938 223.463 120.455 223.796 118.95 223.834C117.446 223.872 115.948 223.613 114.544 223.072C113.139 222.531 111.855 221.718 110.764 220.681C109.673 219.644 108.798 218.402 108.187 217.026C106.954 214.247 106.875 211.093 107.967 208.256C109.06 205.419 111.235 203.133 114.013 201.9C116.792 200.666 119.946 200.587 122.783 201.68C125.62 202.773 127.906 204.947 129.14 207.726ZM247.484 100.31C248.573 99.2695 249.856 98.4534 251.26 97.9089C252.664 97.3643 254.162 97.1019 255.667 97.1367C257.173 97.1714 258.657 97.5026 260.035 98.1113C261.412 98.72 262.656 99.5943 263.696 100.684C264.737 101.776 265.552 103.061 266.096 104.468C266.64 105.875 266.901 107.374 266.866 108.882C266.83 110.39 266.497 111.876 265.887 113.255C265.277 114.634 264.401 115.879 263.31 116.92C262.221 117.96 260.939 118.775 259.535 119.318C258.132 119.861 256.635 120.123 255.13 120.087C253.625 120.051 252.142 119.719 250.766 119.109C249.39 118.5 248.148 117.625 247.11 116.534C245.013 114.331 243.875 111.386 243.945 108.345C244.015 105.304 245.288 102.415 247.484 100.31ZM381.654 208.281C382.889 205.502 385.177 203.328 388.015 202.237C390.853 201.145 394.008 201.226 396.787 202.461C399.565 203.695 401.739 205.983 402.831 208.821C403.922 211.659 403.841 214.814 402.607 217.593C401.995 218.969 401.119 220.21 400.027 221.247C398.936 222.284 397.651 223.096 396.246 223.637C394.841 224.177 393.343 224.436 391.838 224.397C390.333 224.359 388.85 224.024 387.474 223.413C386.099 222.801 384.857 221.925 383.82 220.834C382.783 219.742 381.971 218.457 381.43 217.052C380.89 215.647 380.631 214.149 380.67 212.644C380.708 211.139 381.043 209.656 381.654 208.281Z" fill="url(#paint6_linear_15_2)" style="mix-blend-mode:soft-light" shape-rendering="crispEdges"/>
<path fill-rule="evenodd" clip-rule="evenodd" d="M446.357 251.271L430.157 241.235C430.021 239.661 429.868 238.089 429.699 236.519L443.619 223.527C444.321 222.884 444.845 222.07 445.141 221.165C445.438 220.259 445.496 219.293 445.31 218.359C445.125 217.424 444.702 216.553 444.083 215.83C443.463 215.106 442.668 214.554 441.773 214.227L423.969 207.569C423.525 206.032 423.063 204.5 422.582 202.973L433.679 187.545C434.237 186.775 434.589 185.875 434.7 184.931C434.812 183.987 434.68 183.03 434.317 182.151C433.955 181.272 433.373 180.5 432.628 179.91C431.883 179.319 430.999 178.929 430.061 178.776L411.28 175.724C410.556 174.301 409.796 172.902 409.024 171.502L416.913 154.193C417.316 153.329 417.489 152.375 417.417 151.424C417.344 150.474 417.027 149.558 416.498 148.765C415.968 147.972 415.243 147.329 414.392 146.898C413.541 146.467 412.594 146.262 411.641 146.304L392.595 146.968C391.609 145.738 390.603 144.523 389.579 143.325L393.958 124.761C394.18 123.835 394.162 122.868 393.903 121.952C393.645 121.036 393.156 120.202 392.483 119.529C391.81 118.856 390.976 118.367 390.06 118.108C389.144 117.85 388.177 117.832 387.251 118.054L368.699 122.421C367.493 121.407 366.287 120.406 365.044 119.405L365.708 100.371C365.749 99.4179 365.545 98.4706 365.114 97.62C364.683 96.7694 364.04 96.0442 363.247 95.5144C362.454 94.9846 361.538 94.6681 360.587 94.5954C359.637 94.5227 358.683 94.6963 357.819 95.0993L340.509 102.988C339.111 102.216 337.704 101.46 336.287 100.72L333.236 81.9513C333.084 81.0138 332.695 80.1307 332.105 79.3858C331.516 78.6409 330.746 78.0589 329.869 77.6951C328.992 77.3314 328.036 77.1979 327.092 77.3074C326.149 77.4168 325.249 77.7656 324.478 78.3206L309.038 89.418C307.517 88.9344 305.989 88.472 304.455 88.0308L297.796 70.2267C297.468 69.3336 296.916 68.5397 296.193 67.921C295.469 67.3023 294.6 66.8795 293.666 66.6931C292.733 66.5067 291.768 66.563 290.863 66.8564C289.957 67.1498 289.143 67.6707 288.496 68.3691L275.505 82.3132L275.504 82.3131C273.936 82.1443 272.368 81.9754 270.789 81.8548L260.753 65.643C260.253 64.835 259.556 64.168 258.726 63.7054C257.896 63.2428 256.962 63 256.012 63C255.062 63 254.128 63.2428 253.298 63.7054C252.469 64.168 251.771 64.835 251.272 65.643L241.236 81.8548C239.668 81.9755 238.087 82.1443 236.519 82.3132L223.528 68.3812C222.878 67.692 222.063 67.1792 221.161 66.8908C220.258 66.6024 219.297 66.5478 218.368 66.7323C217.438 66.9167 216.571 67.3341 215.847 67.9453C215.123 68.5565 214.566 69.3415 214.228 70.2267L207.569 88.0308C206.025 88.4771 204.493 88.9475 202.986 89.43L187.546 78.3206C186.778 77.7559 185.877 77.3986 184.931 77.2833C183.984 77.168 183.024 77.2985 182.143 77.6621C181.261 78.0258 180.489 78.6104 179.899 79.3596C179.309 80.1087 178.923 80.9972 178.776 81.9393L175.713 100.72C174.301 101.456 172.902 102.216 171.491 102.988L154.193 95.0993C153.33 94.6968 152.378 94.5233 151.428 94.5955C150.478 94.6676 149.563 94.9831 148.77 95.5114C147.978 96.0397 147.335 96.7632 146.903 97.6121C146.471 98.461 146.265 99.4069 146.304 100.359L146.968 119.417C145.737 120.406 144.519 121.407 143.313 122.433L124.761 118.054C123.836 117.84 122.872 117.864 121.959 118.125C121.046 118.386 120.215 118.874 119.543 119.545C118.871 120.216 118.38 121.047 118.118 121.959C117.855 122.871 117.829 123.835 118.042 124.761L122.421 143.325C121.396 144.531 120.394 145.737 119.405 146.968L100.359 146.304C99.4083 146.269 98.4648 146.478 97.618 146.911C96.7712 147.344 96.0492 147.986 95.5208 148.777C94.9925 149.568 94.6753 150.481 94.5994 151.429C94.5235 152.377 94.6915 153.328 95.0874 154.193L102.976 171.514C102.216 172.902 101.456 174.301 100.721 175.736L81.9514 178.776C81.0119 178.927 80.1266 179.316 79.3801 179.906C78.6335 180.496 78.0504 181.267 77.6864 182.146C77.3223 183.026 77.1895 183.983 77.3006 184.929C77.4116 185.874 77.7628 186.775 78.3206 187.545L89.418 202.973C88.9356 204.493 88.4772 206.025 88.0309 207.557L70.2267 214.227C69.3369 214.56 68.5467 215.114 67.9314 215.838C67.3161 216.562 66.8961 217.431 66.7112 218.363C66.5263 219.295 66.5826 220.258 66.8749 221.162C67.1672 222.066 67.6857 222.88 68.3812 223.527L82.3133 236.519C82.1323 238.087 81.9755 239.655 81.8428 241.235L65.643 251.271C64.835 251.77 64.168 252.468 63.7054 253.298C63.2428 254.127 63 255.062 63 256.011C63 256.961 63.2428 257.896 63.7054 258.725C64.168 259.555 64.835 260.253 65.643 260.752L81.8428 270.776C81.9755 272.356 82.1323 273.936 82.3133 275.504L68.3812 288.495C67.6857 289.143 67.1672 289.957 66.8749 290.861C66.5826 291.765 66.5263 292.728 66.7112 293.66C66.8961 294.592 67.3161 295.461 67.9314 296.185C68.5467 296.908 69.3369 297.463 70.2267 297.796L88.0309 304.454C88.4772 305.998 88.9476 307.53 89.4301 309.038L78.3206 324.477C77.7657 325.248 77.4169 326.148 77.3074 327.092C77.198 328.035 77.3314 328.991 77.6952 329.868C78.0589 330.745 78.6409 331.515 79.3858 332.105C80.1307 332.694 81.0139 333.083 81.9514 333.235L100.721 336.287C101.456 337.71 102.204 339.121 102.988 340.508L95.0874 357.818C94.6915 358.683 94.5235 359.634 94.5994 360.582C94.6753 361.53 94.9925 362.443 95.5208 363.234C96.0492 364.025 96.7712 364.667 97.618 365.1C98.4648 365.533 99.4083 365.742 100.359 365.707L119.405 365.043C120.394 366.286 121.396 367.492 122.421 368.698L118.042 387.262C117.818 388.188 117.836 389.157 118.094 390.074C118.353 390.992 118.843 391.827 119.518 392.499C120.193 393.172 121.03 393.66 121.949 393.915C122.867 394.17 123.835 394.185 124.761 393.957L143.313 389.59C144.519 390.616 145.737 391.605 146.968 392.594L146.304 411.652C146.268 412.603 146.477 413.547 146.909 414.394C147.342 415.241 147.985 415.963 148.777 416.49C149.568 417.018 150.482 417.334 151.43 417.407C152.378 417.481 153.33 417.31 154.193 416.911L171.503 409.023C172.89 409.795 174.301 410.555 175.725 411.29L178.776 430.047C178.922 430.99 179.308 431.879 179.897 432.629C180.486 433.379 181.258 433.965 182.138 434.331C183.019 434.697 183.979 434.83 184.926 434.718C185.873 434.606 186.775 434.252 187.546 433.69L202.974 422.569C204.493 423.051 206.025 423.534 207.557 423.968L214.216 441.772C214.543 442.667 215.095 443.462 215.818 444.081C216.542 444.701 217.413 445.124 218.347 445.309C219.281 445.495 220.248 445.436 221.153 445.14C222.058 444.844 222.872 444.32 223.516 443.618L236.519 429.686C238.087 429.866 239.655 430.023 241.236 430.168L251.272 446.368C251.773 447.173 252.472 447.837 253.301 448.298C254.13 448.758 255.063 449 256.012 449C256.961 449 257.894 448.758 258.723 448.298C259.553 447.837 260.251 447.173 260.753 446.368L270.776 430.156C272.357 430.023 273.937 429.866 275.505 429.686L288.496 443.618C289.14 444.317 289.953 444.838 290.857 445.133C291.761 445.427 292.725 445.485 293.658 445.3C294.59 445.114 295.459 444.693 296.182 444.075C296.904 443.457 297.456 442.664 297.784 441.772L304.455 423.968C305.987 423.534 307.519 423.051 309.038 422.569L324.478 433.69C325.251 434.242 326.151 434.588 327.094 434.695C328.038 434.802 328.993 434.666 329.869 434.302C330.746 433.937 331.515 433.355 332.104 432.611C332.693 431.867 333.082 430.984 333.236 430.047L336.299 411.278C337.455 410.686 338.603 410.061 339.749 409.436L339.752 409.435C340.004 409.297 340.257 409.16 340.509 409.023L357.819 416.911C358.683 417.311 359.636 417.482 360.585 417.407C361.535 417.333 362.449 417.016 363.241 416.487C364.033 415.958 364.675 415.235 365.107 414.386C365.539 413.537 365.746 412.592 365.708 411.64L365.044 392.582C366.275 391.617 367.493 390.616 368.699 389.59L387.251 393.957C388.176 394.182 389.143 394.166 390.059 393.909C390.976 393.653 391.811 393.165 392.484 392.493C393.158 391.82 393.647 390.986 393.905 390.07C394.163 389.154 394.181 388.187 393.958 387.262L389.591 368.698C390.605 367.492 391.606 366.286 392.595 365.043L411.653 365.707C412.605 365.746 413.551 365.54 414.4 365.108C415.249 364.676 415.972 364.033 416.501 363.241C417.029 362.448 417.344 361.533 417.417 360.583C417.489 359.633 417.315 358.681 416.913 357.818L409.024 340.508C409.796 339.121 410.544 337.71 411.28 336.287L430.049 333.235C430.99 333.089 431.877 332.704 432.626 332.115C433.375 331.527 433.96 330.756 434.325 329.877C434.69 328.997 434.822 328.038 434.709 327.092C434.596 326.147 434.241 325.246 433.679 324.477L422.582 309.038C423.062 307.515 423.524 305.987 423.969 304.454L441.773 297.796C442.668 297.468 443.463 296.917 444.083 296.193C444.702 295.469 445.125 294.599 445.31 293.664C445.496 292.73 445.438 291.764 445.141 290.858C444.845 289.953 444.321 289.139 443.619 288.495L429.687 275.504C429.856 273.936 430.012 272.356 430.157 270.776L446.357 260.752C447.165 260.253 447.832 259.555 448.295 258.725C448.757 257.896 449 256.961 449 256.011C449 255.062 448.757 254.127 448.295 253.298C447.832 252.468 447.165 251.77 446.357 251.271ZM337.904 385.694C334.997 384.987 332.481 383.174 330.89 380.641C329.3 378.107 328.761 375.053 329.388 372.128C330.015 369.203 331.759 366.639 334.248 364.98C336.737 363.321 339.776 362.699 342.717 363.246C345.635 363.943 348.164 365.755 349.763 368.293C351.363 370.831 351.905 373.895 351.275 376.828C350.644 379.761 348.891 382.331 346.39 383.988C343.889 385.645 340.839 386.257 337.892 385.694H337.904ZM332.391 348.457C331.05 348.171 329.665 348.151 328.315 348.399C326.966 348.648 325.679 349.16 324.527 349.906C323.376 350.652 322.382 351.617 321.604 352.747C320.826 353.877 320.278 355.149 319.991 356.491L314.237 383.342C295.945 391.638 276.086 395.916 256 395.887C234.77 395.887 214.626 391.182 196.544 382.775L190.791 355.936C190.505 354.593 189.958 353.32 189.181 352.188C188.403 351.057 187.41 350.09 186.258 349.343C185.107 348.596 183.819 348.083 182.469 347.834C181.119 347.585 179.733 347.604 178.39 347.891L154.688 352.981C133.123 327.092 110.764 291.383 115.678 239.607H115.69L140.382 228.63C142.916 227.501 144.898 225.412 145.893 222.822C146.888 220.233 146.815 217.354 145.689 214.818L140.611 203.323L133.123 186.259C158.857 139.798 194.24 124.761 229.825 116.064L247.472 134.579C251.465 138.753 258.087 138.922 262.248 134.917L282.007 116.028C287.302 117.022 292.525 118.316 297.649 119.9L298.134 278.421L213.554 149.312V149.013L168.18 194.846V316.819L213.554 362.123V233.083L298.512 362.415L331.525 329.392L331.412 329.219L343.82 316.813L343.517 144.028C357.706 155.24 369.628 169.088 378.614 184.831L365.092 215.373C363.97 217.909 363.899 220.787 364.893 223.375C365.888 225.964 367.868 228.053 370.4 229.185L396.443 240.74C396.889 245.36 397.118 250.029 397.118 254.769H397.13C397.13 291.071 382.07 327.832 356.649 353.644L332.403 348.445L332.391 348.457ZM172.89 385.127C169.949 385.674 166.911 385.052 164.421 383.393C161.932 381.734 160.188 379.17 159.561 376.245C158.934 373.32 159.473 370.266 161.064 367.732C162.654 365.199 165.17 363.386 168.077 362.679C169.552 362.364 171.074 362.342 172.557 362.615C174.04 362.888 175.455 363.451 176.721 364.271C177.987 365.091 179.079 366.152 179.934 367.394C180.79 368.636 181.392 370.034 181.708 371.509C182.023 372.983 182.044 374.506 181.771 375.989C181.498 377.472 180.936 378.887 180.116 380.153C179.296 381.418 178.235 382.51 176.993 383.366C175.751 384.221 174.353 384.824 172.878 385.139L172.89 385.127ZM129.14 207.726C129.75 209.102 130.084 210.584 130.122 212.089C130.159 213.593 129.9 215.091 129.359 216.495C128.818 217.9 128.006 219.184 126.969 220.275C125.931 221.366 124.689 222.241 123.313 222.852C121.938 223.463 120.455 223.796 118.95 223.834C117.446 223.872 115.948 223.613 114.544 223.072C113.139 222.531 111.855 221.718 110.764 220.681C109.673 219.644 108.798 218.402 108.187 217.026C106.954 214.247 106.875 211.093 107.967 208.256C109.06 205.419 111.235 203.133 114.013 201.9C116.792 200.666 119.946 200.587 122.783 201.68C125.62 202.773 127.906 204.947 129.14 207.726ZM247.484 100.31C248.573 99.2695 249.856 98.4534 251.26 97.9089C252.664 97.3643 254.162 97.1019 255.667 97.1367C257.173 97.1714 258.657 97.5026 260.035 98.1113C261.412 98.72 262.656 99.5943 263.696 100.684C264.737 101.776 265.552 103.061 266.096 104.468C266.64 105.875 266.901 107.374 266.866 108.882C266.83 110.39 266.497 111.876 265.887 113.255C265.277 114.634 264.401 115.879 263.31 116.92C262.221 117.96 260.939 118.775 259.535 119.318C258.132 119.861 256.635 120.123 255.13 120.087C253.625 120.051 252.142 119.719 250.766 119.109C249.39 118.5 248.148 117.625 247.11 116.534C245.013 114.331 243.875 111.386 243.945 108.345C244.015 105.304 245.288 102.415 247.484 100.31ZM381.654 208.281C382.889 205.502 385.177 203.328 388.015 202.237C390.853 201.145 394.008 201.226 396.787 202.461C399.565 203.695 401.739 205.983 402.831 208.821C403.922 211.659 403.841 214.814 402.607 217.593C401.995 218.969 401.119 220.21 400.027 221.247C398.936 222.284 397.651 223.096 396.246 223.637C394.841 224.177 393.343 224.436 391.838 224.397C390.333 224.359 388.85 224.024 387.474 223.413C386.099 222.801 384.857 221.925 383.82 220.834C382.783 219.742 381.971 218.457 381.43 217.052C380.89 215.647 380.631 214.149 380.67 212.644C380.708 211.139 381.043 209.656 381.654 208.281Z" fill="url(#paint7_radial_15_2)" fill-opacity="0.8" style="mix-blend-mode:screen" shape-rendering="crispEdges"/>
<path fill-rule="evenodd" clip-rule="evenodd" d="M446.357 251.271L430.157 241.235C430.021 239.661 429.868 238.089 429.699 236.519L443.619 223.527C444.321 222.884 444.845 222.07 445.141 221.165C445.438 220.259 445.496 219.293 445.31 218.359C445.125 217.424 444.702 216.553 444.083 215.83C443.463 215.106 442.668 214.554 441.773 214.227L423.969 207.569C423.525 206.032 423.063 204.5 422.582 202.973L433.679 187.545C434.237 186.775 434.589 185.875 434.7 184.931C434.812 183.987 434.68 183.03 434.317 182.151C433.955 181.272 433.373 180.5 432.628 179.91C431.883 179.319 430.999 178.929 430.061 178.776L411.28 175.724C410.556 174.301 409.796 172.902 409.024 171.502L416.913 154.193C417.316 153.329 417.489 152.375 417.417 151.424C417.344 150.474 417.027 149.558 416.498 148.765C415.968 147.972 415.243 147.329 414.392 146.898C413.541 146.467 412.594 146.262 411.641 146.304L392.595 146.968C391.609 145.738 390.603 144.523 389.579 143.325L393.958 124.761C394.18 123.835 394.162 122.868 393.903 121.952C393.645 121.036 393.156 120.202 392.483 119.529C391.81 118.856 390.976 118.367 390.06 118.108C389.144 117.85 388.177 117.832 387.251 118.054L368.699 122.421C367.493 121.407 366.287 120.406 365.044 119.405L365.708 100.371C365.749 99.4179 365.545 98.4706 365.114 97.62C364.683 96.7694 364.04 96.0442 363.247 95.5144C362.454 94.9846 361.538 94.6681 360.587 94.5954C359.637 94.5227 358.683 94.6963 357.819 95.0993L340.509 102.988C339.111 102.216 337.704 101.46 336.287 100.72L333.236 81.9513C333.084 81.0138 332.695 80.1307 332.105 79.3858C331.516 78.6409 330.746 78.0589 329.869 77.6951C328.992 77.3314 328.036 77.1979 327.092 77.3074C326.149 77.4168 325.249 77.7656 324.478 78.3206L309.038 89.418C307.517 88.9344 305.989 88.472 304.455 88.0308L297.796 70.2267C297.468 69.3336 296.916 68.5397 296.193 67.921C295.469 67.3023 294.6 66.8795 293.666 66.6931C292.733 66.5067 291.768 66.563 290.863 66.8564C289.957 67.1498 289.143 67.6707 288.496 68.3691L275.505 82.3132L275.504 82.3131C273.936 82.1443 272.368 81.9754 270.789 81.8548L260.753 65.643C260.253 64.835 259.556 64.168 258.726 63.7054C257.896 63.2428 256.962 63 256.012 63C255.062 63 254.128 63.2428 253.298 63.7054C252.469 64.168 251.771 64.835 251.272 65.643L241.236 81.8548C239.668 81.9755 238.087 82.1443 236.519 82.3132L223.528 68.3812C222.878 67.692 222.063 67.1792 221.161 66.8908C220.258 66.6024 219.297 66.5478 218.368 66.7323C217.438 66.9167 216.571 67.3341 215.847 67.9453C215.123 68.5565 214.566 69.3415 214.228 70.2267L207.569 88.0308C206.025 88.4771 204.493 88.9475 202.986 89.43L187.546 78.3206C186.778 77.7559 185.877 77.3986 184.931 77.2833C183.984 77.168 183.024 77.2985 182.143 77.6621C181.261 78.0258 180.489 78.6104 179.899 79.3596C179.309 80.1087 178.923 80.9972 178.776 81.9393L175.713 100.72C174.301 101.456 172.902 102.216 171.491 102.988L154.193 95.0993C153.33 94.6968 152.378 94.5233 151.428 94.5955C150.478 94.6676 149.563 94.9831 148.77 95.5114C147.978 96.0397 147.335 96.7632 146.903 97.6121C146.471 98.461 146.265 99.4069 146.304 100.359L146.968 119.417C145.737 120.406 144.519 121.407 143.313 122.433L124.761 118.054C123.836 117.84 122.872 117.864 121.959 118.125C121.046 118.386 120.215 118.874 119.543 119.545C118.871 120.216 118.38 121.047 118.118 121.959C117.855 122.871 117.829 123.835 118.042 124.761L122.421 143.325C121.396 144.531 120.394 145.737 119.405 146.968L100.359 146.304C99.4083 146.269 98.4648 146.478 97.618 146.911C96.7712 147.344 96.0492 147.986 95.5208 148.777C94.9925 149.568 94.6753 150.481 94.5994 151.429C94.5235 152.377 94.6915 153.328 95.0874 154.193L102.976 171.514C102.216 172.902 101.456 174.301 100.721 175.736L81.9514 178.776C81.0119 178.927 80.1266 179.316 79.3801 179.906C78.6335 180.496 78.0504 181.267 77.6864 182.146C77.3223 183.026 77.1895 183.983 77.3006 184.929C77.4116 185.874 77.7628 186.775 78.3206 187.545L89.418 202.973C88.9356 204.493 88.4772 206.025 88.0309 207.557L70.2267 214.227C69.3369 214.56 68.5467 215.114 67.9314 215.838C67.3161 216.562 66.8961 217.431 66.7112 218.363C66.5263 219.295 66.5826 220.258 66.8749 221.162C67.1672 222.066 67.6857 222.88 68.3812 223.527L82.3133 236.519C82.1323 238.087 81.9755 239.655 81.8428 241.235L65.643 251.271C64.835 251.77 64.168 252.468 63.7054 253.298C63.2428 254.127 63 255.062 63 256.011C63 256.961 63.2428 257.896 63.7054 258.725C64.168 259.555 64.835 260.253 65.643 260.752L81.8428 270.776C81.9755 272.356 82.1323 273.936 82.3133 275.504L68.3812 288.495C67.6857 289.143 67.1672 289.957 66.8749 290.861C66.5826 291.765 66.5263 292.728 66.7112 293.66C66.8961 294.592 67.3161 295.461 67.9314 296.185C68.5467 296.908 69.3369 297.463 70.2267 297.796L88.0309 304.454C88.4772 305.998 88.9476 307.53 89.4301 309.038L78.3206 324.477C77.7657 325.248 77.4169 326.148 77.3074 327.092C77.198 328.035 77.3314 328.991 77.6952 329.868C78.0589 330.745 78.6409 331.515 79.3858 332.105C80.1307 332.694 81.0139 333.083 81.9514 333.235L100.721 336.287C101.456 337.71 102.204 339.121 102.988 340.508L95.0874 357.818C94.6915 358.683 94.5235 359.634 94.5994 360.582C94.6753 361.53 94.9925 362.443 95.5208 363.234C96.0492 364.025 96.7712 364.667 97.618 365.1C98.4648 365.533 99.4083 365.742 100.359 365.707L119.405 365.043C120.394 366.286 121.396 367.492 122.421 368.698L118.042 387.262C117.818 388.188 117.836 389.157 118.094 390.074C118.353 390.992 118.843 391.827 119.518 392.499C120.193 393.172 121.03 393.66 121.949 393.915C122.867 394.17 123.835 394.185 124.761 393.957L143.313 389.59C144.519 390.616 145.737 391.605 146.968 392.594L146.304 411.652C146.268 412.603 146.477 413.547 146.909 414.394C147.342 415.241 147.985 415.963 148.777 416.49C149.568 417.018 150.482 417.334 151.43 417.407C152.378 417.481 153.33 417.31 154.193 416.911L171.503 409.023C172.89 409.795 174.301 410.555 175.725 411.29L178.776 430.047C178.922 430.99 179.308 431.879 179.897 432.629C180.486 433.379 181.258 433.965 182.138 434.331C183.019 434.697 183.979 434.83 184.926 434.718C185.873 434.606 186.775 434.252 187.546 433.69L202.974 422.569C204.493 423.051 206.025 423.534 207.557 423.968L214.216 441.772C214.543 442.667 215.095 443.462 215.818 444.081C216.542 444.701 217.413 445.124 218.347 445.309C219.281 445.495 220.248 445.436 221.153 445.14C222.058 444.844 222.872 444.32 223.516 443.618L236.519 429.686C238.087 429.866 239.655 430.023 241.236 430.168L251.272 446.368C251.773 447.173 252.472 447.837 253.301 448.298C254.13 448.758 255.063 449 256.012 449C256.961 449 257.894 448.758 258.723 448.298C259.553 447.837 260.251 447.173 260.753 446.368L270.776 430.156C272.357 430.023 273.937 429.866 275.505 429.686L288.496 443.618C289.14 444.317 289.953 444.838 290.857 445.133C291.761 445.427 292.725 445.485 293.658 445.3C294.59 445.114 295.459 444.693 296.182 444.075C296.904 443.457 297.456 442.664 297.784 441.772L304.455 423.968C305.987 423.534 307.519 423.051 309.038 422.569L324.478 433.69C325.251 434.242 326.151 434.588 327.094 434.695C328.038 434.802 328.993 434.666 329.869 434.302C330.746 433.937 331.515 433.355 332.104 432.611C332.693 431.867 333.082 430.984 333.236 430.047L336.299 411.278C337.455 410.686 338.603 410.061 339.749 409.436L339.752 409.435C340.004 409.297 340.257 409.16 340.509 409.023L357.819 416.911C358.683 417.311 359.636 417.482 360.585 417.407C361.535 417.333 362.449 417.016 363.241 416.487C364.033 415.958 364.675 415.235 365.107 414.386C365.539 413.537 365.746 412.592 365.708 411.64L365.044 392.582C366.275 391.617 367.493 390.616 368.699 389.59L387.251 393.957C388.176 394.182 389.143 394.166 390.059 393.909C390.976 393.653 391.811 393.165 392.484 392.493C393.158 391.82 393.647 390.986 393.905 390.07C394.163 389.154 394.181 388.187 393.958 387.262L389.591 368.698C390.605 367.492 391.606 366.286 392.595 365.043L411.653 365.707C412.605 365.746 413.551 365.54 414.4 365.108C415.249 364.676 415.972 364.033 416.501 363.241C417.029 362.448 417.344 361.533 417.417 360.583C417.489 359.633 417.315 358.681 416.913 357.818L409.024 340.508C409.796 339.121 410.544 337.71 411.28 336.287L430.049 333.235C430.99 333.089 431.877 332.704 432.626 332.115C433.375 331.527 433.96 330.756 434.325 329.877C434.69 328.997 434.822 328.038 434.709 327.092C434.596 326.147 434.241 325.246 433.679 324.477L422.582 309.038C423.062 307.515 423.524 305.987 423.969 304.454L441.773 297.796C442.668 297.468 443.463 296.917 444.083 296.193C444.702 295.469 445.125 294.599 445.31 293.664C445.496 292.73 445.438 291.764 445.141 290.858C444.845 289.953 444.321 289.139 443.619 288.495L429.687 275.504C429.856 273.936 430.012 272.356 430.157 270.776L446.357 260.752C447.165 260.253 447.832 259.555 448.295 258.725C448.757 257.896 449 256.961 449 256.011C449 255.062 448.757 254.127 448.295 253.298C447.832 252.468 447.165 251.77 446.357 251.271ZM337.904 385.694C334.997 384.987 332.481 383.174 330.89 380.641C329.3 378.107 328.761 375.053 329.388 372.128C330.015 369.203 331.759 366.639 334.248 364.98C336.737 363.321 339.776 362.699 342.717 363.246C345.635 363.943 348.164 365.755 349.763 368.293C351.363 370.831 351.905 373.895 351.275 376.828C350.644 379.761 348.891 382.331 346.39 383.988C343.889 385.645 340.839 386.257 337.892 385.694H337.904ZM332.391 348.457C331.05 348.171 329.665 348.151 328.315 348.399C326.966 348.648 325.679 349.16 324.527 349.906C323.376 350.652 322.382 351.617 321.604 352.747C320.826 353.877 320.278 355.149 319.991 356.491L314.237 383.342C295.945 391.638 276.086 395.916 256 395.887C234.77 395.887 214.626 391.182 196.544 382.775L190.791 355.936C190.505 354.593 189.958 353.32 189.181 352.188C188.403 351.057 187.41 350.09 186.258 349.343C185.107 348.596 183.819 348.083 182.469 347.834C181.119 347.585 179.733 347.604 178.39 347.891L154.688 352.981C133.123 327.092 110.764 291.383 115.678 239.607H115.69L140.382 228.63C142.916 227.501 144.898 225.412 145.893 222.822C146.888 220.233 146.815 217.354 145.689 214.818L140.611 203.323L133.123 186.259C158.857 139.798 194.24 124.761 229.825 116.064L247.472 134.579C251.465 138.753 258.087 138.922 262.248 134.917L282.007 116.028C287.302 117.022 292.525 118.316 297.649 119.9L298.134 278.421L213.554 149.312V149.013L168.18 194.846V316.819L213.554 362.123V233.083L298.512 362.415L331.525 329.392L331.412 329.219L343.82 316.813L343.517 144.028C357.706 155.24 369.628 169.088 378.614 184.831L365.092 215.373C363.97 217.909 363.899 220.787 364.893 223.375C365.888 225.964 367.868 228.053 370.4 229.185L396.443 240.74C396.889 245.36 397.118 250.029 397.118 254.769H397.13C397.13 291.071 382.07 327.832 356.649 353.644L332.403 348.445L332.391 348.457ZM172.89 385.127C169.949 385.674 166.911 385.052 164.421 383.393C161.932 381.734 160.188 379.17 159.561 376.245C158.934 373.32 159.473 370.266 161.064 367.732C162.654 365.199 165.17 363.386 168.077 362.679C169.552 362.364 171.074 362.342 172.557 362.615C174.04 362.888 175.455 363.451 176.721 364.271C177.987 365.091 179.079 366.152 179.934 367.394C180.79 368.636 181.392 370.034 181.708 371.509C182.023 372.983 182.044 374.506 181.771 375.989C181.498 377.472 180.936 378.887 180.116 380.153C179.296 381.418 178.235 382.51 176.993 383.366C175.751 384.221 174.353 384.824 172.878 385.139L172.89 385.127ZM129.14 207.726C129.75 209.102 130.084 210.584 130.122 212.089C130.159 213.593 129.9 215.091 129.359 216.495C128.818 217.9 128.006 219.184 126.969 220.275C125.931 221.366 124.689 222.241 123.313 222.852C121.938 223.463 120.455 223.796 118.95 223.834C117.446 223.872 115.948 223.613 114.544 223.072C113.139 222.531 111.855 221.718 110.764 220.681C109.673 219.644 108.798 218.402 108.187 217.026C106.954 214.247 106.875 211.093 107.967 208.256C109.06 205.419 111.235 203.133 114.013 201.9C116.792 200.666 119.946 200.587 122.783 201.68C125.62 202.773 127.906 204.947 129.14 207.726ZM247.484 100.31C248.573 99.2695 249.856 98.4534 251.26 97.9089C252.664 97.3643 254.162 97.1019 255.667 97.1367C257.173 97.1714 258.657 97.5026 260.035 98.1113C261.412 98.72 262.656 99.5943 263.696 100.684C264.737 101.776 265.552 103.061 266.096 104.468C266.64 105.875 266.901 107.374 266.866 108.882C266.83 110.39 266.497 111.876 265.887 113.255C265.277 114.634 264.401 115.879 263.31 116.92C262.221 117.96 260.939 118.775 259.535 119.318C258.132 119.861 256.635 120.123 255.13 120.087C253.625 120.051 252.142 119.719 250.766 119.109C249.39 118.5 248.148 117.625 247.11 116.534C245.013 114.331 243.875 111.386 243.945 108.345C244.015 105.304 245.288 102.415 247.484 100.31ZM381.654 208.281C382.889 205.502 385.177 203.328 388.015 202.237C390.853 201.145 394.008 201.226 396.787 202.461C399.565 203.695 401.739 205.983 402.831 208.821C403.922 211.659 403.841 214.814 402.607 217.593C401.995 218.969 401.119 220.21 400.027 221.247C398.936 222.284 397.651 223.096 396.246 223.637C394.841 224.177 393.343 224.436 391.838 224.397C390.333 224.359 388.85 224.024 387.474 223.413C386.099 222.801 384.857 221.925 383.82 220.834C382.783 219.742 381.971 218.457 381.43 217.052C380.89 215.647 380.631 214.149 380.67 212.644C380.708 211.139 381.043 209.656 381.654 208.281Z" fill="url(#paint8_radial_15_2)" fill-opacity="0.5" shape-rendering="crispEdges"/>
</g>
</g>
<defs>
<filter id="filter0_d_15_2" x="32" y="36" width="448" height="448" filterUnits="userSpaceOnUse" color-interpolation-filters="sRGB">
<feFlood flood-opacity="0" result="BackgroundImageFix"/>
<feColorMatrix in="SourceAlpha" type="matrix" values="0 0 0 0 0 0 0 0 0 0 0 0 0 0 0 0 0 0 127 0" result="hardAlpha"/>
<feOffset dy="4"/>
<feGaussianBlur stdDeviation="8"/>
<feColorMatrix type="matrix" values="0 0 0 0 0 0 0 0 0 0 0 0 0 0 0 0 0 0 0.33 0"/>
<feBlend mode="normal" in2="BackgroundImageFix" result="effect1_dropShadow_15_2"/>
<feBlend mode="normal" in="SourceGraphic" in2="effect1_dropShadow_15_2" result="shape"/>
</filter>
<filter id="filter1_ddi_15_2" x="39" y="43" width="434" height="434" filterUnits="userSpaceOnUse" color-interpolation-filters="sRGB">
<feFlood flood-opacity="0" result="BackgroundImageFix"/>
<feColorMatrix in="SourceAlpha" type="matrix" values="0 0 0 0 0 0 0 0 0 0 0 0 0 0 0 0 0 0 127 0" result="hardAlpha"/>
<feOffset dy="4"/>
<feGaussianBlur stdDeviation="12"/>
<feComposite in2="hardAlpha" operator="out"/>
<feColorMatrix type="matrix" values="0 0 0 0 0 0 0 0 0 0 0 0 0 0 0 0 0 0 0.25 0"/>
<feBlend mode="overlay" in2="BackgroundImageFix" result="effect1_dropShadow_15_2"/>
<feColorMatrix in="SourceAlpha" type="matrix" values="0 0 0 0 0 0 0 0 0 0 0 0 0 0 0 0 0 0 127 0" result="hardAlpha"/>
<feOffset dy="2"/>
<feGaussianBlur stdDeviation="4"/>
<feComposite in2="hardAlpha" operator="out"/>
<feColorMatrix type="matrix" values="0 0 0 0 0 0 0 0 0 0 0 0 0 0 0 0 0 0 0.25 0"/>
<feBlend mode="overlay" in2="effect1_dropShadow_15_2" result="effect2_dropShadow_15_2"/>
<feBlend mode="normal" in="SourceGraphic" in2="effect2_dropShadow_15_2" result="shape"/>
<feColorMatrix in="SourceAlpha" type="matrix" values="0 0 0 0 0 0 0 0 0 0 0 0 0 0 0 0 0 0 127 0" result="hardAlpha"/>
<feOffset dy="2"/>
<feGaussianBlur stdDeviation="1"/>
<feComposite in2="hardAlpha" operator="arithmetic" k2="-1" k3="1"/>
<feColorMatrix type="matrix" values="0 0 0 0 1 0 0 0 0 1 0 0 0 0 1 0 0 0 1 0"/>
<feBlend mode="normal" in2="shape" result="effect3_innerShadow_15_2"/>
</filter>
<linearGradient id="paint0_linear_15_2" x1="256" y1="48" x2="256" y2="464" gradientUnits="userSpaceOnUse">
<stop stop-color="white"/>
<stop offset="1"/>
</linearGradient>
<radialGradient id="paint1_radial_15_2" cx="0" cy="0" r="1" gradientUnits="userSpaceOnUse" gradientTransform="translate(256 256) rotate(90) scale(208)">
<stop/>
<stop offset="1" stop-opacity="0"/>
</radialGradient>
<radialGradient id="paint2_radial_15_2" cx="0" cy="0" r="1" gradientUnits="userSpaceOnUse" gradientTransform="translate(256 256) rotate(90) scale(208)">
<stop stop-color="white"/>
<stop offset="1" stop-color="white" stop-opacity="0"/>
</radialGradient>
<radialGradient id="paint3_radial_15_2" cx="0" cy="0" r="1" gradientUnits="userSpaceOnUse" gradientTransform="translate(345 128.5) rotate(90) scale(335.5)">
<stop stop-color="#88C649"/>
<stop offset="0.338542" stop-color="#88C649"/>
<stop offset="0.755208" stop-color="#439240"/>
<stop offset="1" stop-color="#0F59B2"/>
</radialGradient>
<radialGradient id="paint4_radial_15_2" cx="0" cy="0" r="1" gradientUnits="userSpaceOnUse" gradientTransform="translate(167.5 360.5) rotate(90) scale(238)">
<stop stop-color="#16B0ED"/>
<stop offset="0.177083" stop-color="#16B0ED"/>
<stop offset="0.557292" stop-color="#0F59B2"/>
<stop offset="1" stop-color="#88C649" stop-opacity="0"/>
</radialGradient>
<radialGradient id="paint5_radial_15_2" cx="0" cy="0" r="1" gradientUnits="userSpaceOnUse" gradientTransform="translate(396 256) rotate(90) scale(218)">
<stop offset="0.208333" stop-color="#88C649" stop-opacity="0.5"/>
<stop offset="0.671875" stop-color="#16B0ED" stop-opacity="0.5"/>
<stop offset="1" stop-color="#16B0ED" stop-opacity="0"/>
</radialGradient>
<linearGradient id="paint6_linear_15_2" x1="256" y1="63" x2="256" y2="449" gradientUnits="userSpaceOnUse">
<stop stop-color="white"/>
<stop offset="1"/>
</linearGradient>
<radialGradient id="paint7_radial_15_2" cx="0" cy="0" r="1" gradientUnits="userSpaceOnUse" gradientTransform="translate(256 113.676) rotate(90) scale(142.324)">
<stop stop-color="white"/>
<stop offset="1" stop-color="white" stop-opacity="0"/>
</radialGradient>
<radialGradient id="paint8_radial_15_2" cx="0" cy="0" r="1" gradientUnits="userSpaceOnUse" gradientTransform="translate(256 406.411) rotate(-90) scale(136.933)">
<stop stop-color="white"/>
<stop offset="1" stop-color="white" stop-opacity="0"/>
</radialGradient>
</defs>
</svg>
